<?xml version="1.0" standalone="no"?>
<!DOCTYPE svg PUBLIC "-//W3C//DTD SVG 1.1//EN" "http://www.w3.org/Graphics/SVG/1.1/DTD/svg11.dtd">
<svg xmlns="http://www.w3.org/2000/svg">
<metadata>Copyright (C) 2021 by original authors @ fontello.com</metadata>
<defs>
<font id="fontello" horiz-adv-x="1000" >
<font-face font-family="fontello" font-weight="400" font-stretch="normal" units-per-em="1000" ascent="850" descent="-150" />
<missing-glyph horiz-adv-x="1000" />
<glyph glyph-name="ic-info" unicode="&#xe800;" d="M500 779a429 429 0 1 1 429-429 429 429 0 0 1-429 429m0 71a500 500 0 1 0-500-500 500 500 0 0 0 500 500z m0-214a71 71 0 1 0-71-72 71 71 0 0 0 71 72z m-71-215h142v-357h-142z" horiz-adv-x="1000" />

<glyph glyph-name="ic-sel" unicode="&#xe801;" d="M540 233a31 31 0 0 0-51 0l-113 163a31 31 0 0 0 26 49h225a31 31 0 0 0 25-49z" horiz-adv-x="997" />

<glyph glyph-name="ic-search" unicode="&#xe802;" d="M893-87h0l-237 235a344 344 0 1 0 46 46l235-238-43-44z m-455 781a281 281 0 1 1 281-281 282 282 0 0 1-281 281z" horiz-adv-x="1000" />

<glyph glyph-name="ic-star" unicode="&#xe803;" d="M467 642l-77-155-170-25a38 38 0 0 1-21-64l123-120-29-170a38 38 0 0 1 54-39l153 80 153-80a38 38 0 0 1 54 39l-29 170 123 120a38 38 0 0 1-20 64l-171 25-76 155a38 38 0 0 1-67 0z" horiz-adv-x="1000" />

<glyph glyph-name="ic-down" unicode="&#xe804;" d="M469 756l62 0 0-568 238 237 44-44-313-312-312 312 44 44 237-237 0 568z m406-656h63v-125a63 63 0 0 0-63-63l-750 0a63 63 0 0 0-62 63v125h62v-125l750 0v125z" horiz-adv-x="1000" />

<glyph glyph-name="ic-check" unicode="&#xe805;" d="M406 188l-222 221-43-43 222-222 43-44 441 441-44 47z" horiz-adv-x="1000" />

<glyph glyph-name="ic-edit" unicode="&#xe806;" d="M875 69h-515l-79-63h594z m-750 137l0-200 200 0 513 513a63 63 0 0 1 18 44 62 62 0 0 1-18 45l-112 111a63 63 0 0 1-88 0z m554 242h0l-379-379-112 0 0 112 378 379 113-113z m115 115h0l-71-71-113 112 72 72 112-113z" horiz-adv-x="1000" />

<glyph glyph-name="ic-renew" unicode="&#xe807;" d="M500 757h0a406 406 0 0 0 406-407h-62a344 344 0 0 1-344 344 344 344 0 0 1-288-156h163l0-63-250 0 0 250 63 0 0-115a405 405 0 0 0 312 147z m-406-407h62a344 344 0 0 1 344-344 344 344 0 0 1 288 157h-163l0 62h250l0-250-62 0 0 115a406 406 0 0 0-719 260z" horiz-adv-x="1000" />

<glyph glyph-name="ic-fold" unicode="&#xe80b;" d="M211 381h578a23 23 0 0 0 0-47h-578a23 23 0 0 0 0 47z m-20-6l122 123a23 23 0 0 0 33-34l-122-122a23 23 0 0 0-33 33z m31-2l122-122a23 23 0 0 0-33-33l-122 122a23 23 0 0 0 33 33z m-11 290h578a23 23 0 0 0 0-47h-578a23 23 0 0 0 0 47z m0-563h578a23 23 0 0 0 0-47h-578a23 23 0 0 0 0 47z" horiz-adv-x="1000" />

<glyph glyph-name="ic-more" unicode="&#xe80e;" d="M219 350a63 63 0 1 0 62-62 63 63 0 0 0-62 62z m219 0a63 63 0 1 0 62-62 63 63 0 0 0-62 62z m218 0a63 63 0 1 0 63-62 63 63 0 0 0-63 62z" horiz-adv-x="1000" />

<glyph glyph-name="ic-cal" unicode="&#xe80f;" d="M719 37h-438a63 63 0 0 0-62 63v531a63 63 0 0 0 62 62h438a63 63 0 0 0 62-62v-531a63 63 0 0 0-62-63z m-115 188v-94h88v94z m-148 0v-94h88v94z m-148 0v-94h88v94z m296 125v-94h88v94z m-148 0v-94h88v94z m-148 0v-94h88v94z m5 250a31 31 0 0 1-32-32v-62a31 31 0 0 1 32-31h375a31 31 0 0 1 31 31v62a31 31 0 0 1-31 32z" horiz-adv-x="1000" />

<glyph glyph-name="ic-point" unicode="&#xe810;" d="M500 6a344 344 0 0 0-243 587 344 344 0 0 0 486-486 342 342 0 0 0-243-101z m-114 496v-311h75v105h48a136 136 0 0 1 89 27 90 90 0 0 1 33 73 103 103 0 0 1-15 55 99 99 0 0 1-43 38 145 145 0 0 1-63 13z m124-148h-49v90h50a42 42 0 0 0 32-13 50 50 0 0 0 12-35 41 41 0 0 0-12-31 47 47 0 0 0-33-11z" horiz-adv-x="1000" />

<glyph glyph-name="ic-cus" unicode="&#xe811;" d="M339 467a107 107 0 1 1-171-86 157 157 0 0 1-110-149 48 48 0 0 1 48-48h161a606 606 0 0 0 67 180 157 157 0 0 1-38 17 107 107 0 0 1 43 86m345-402h-367a50 50 0 0 0-50 49v106c0 1 0 2 1 3s0 2 0 3a189 189 0 0 0 36 106 193 193 0 0 0 29 32 191 191 0 0 0 95 44 125 125 0 1 0 145 0 191 191 0 0 0 160-180c0-1 0-2 0-3 0-2 1-3 1-5v-106a50 50 0 0 0-50-49z m-250 204a23 23 0 0 1-16-40l55-56a24 24 0 0 1 33 0l77 78a23 23 0 0 1-33 33l-61-61-38 39a23 23 0 0 1-17 7z m398 114a107 107 0 1 1-128 0 156 156 0 0 1-38-18 1178 1178 0 0 0 68-145v-34h160a48 48 0 0 1 49 48 157 157 0 0 1-111 149m-129 86" horiz-adv-x="1000" />

<glyph glyph-name="ic-card" unicode="&#xe812;" d="M781 88h-562a63 63 0 0 0-63 63v306h688v-306a63 63 0 0 0-63-63z m-218 156v-62h187v62z m281 276h0l-688 0v37a63 63 0 0 0 63 62h562a63 63 0 0 0 63-62v-37l0 0z" horiz-adv-x="1000" />

<glyph glyph-name="ic-com" unicode="&#xe813;" d="M672 41h-344a31 31 0 1 0 0 63h344a31 31 0 1 0 0-63z m78 125h-500a63 63 0 0 0-62 63v375a63 63 0 0 0 62 62h500a63 63 0 0 0 63-62v-375a63 63 0 0 0-63-63z m-469 250v-62h297v62z m0 125v-62h190v62z" horiz-adv-x="1000" />

<glyph glyph-name="ic-bag" unicode="&#xe814;" d="M750 71h-500a31 31 0 0 0-31 31v156a31 31 0 0 0 31 31h63v-31a31 31 0 0 1 62 0v31h250v-31a31 31 0 0 1 63 0v31h62a31 31 0 0 0 31-31v-156a31 31 0 0 0-31-31z m-125 250h-250v31a31 31 0 1 1-62 0v-31h-63a63 63 0 0 0-62 62v94a63 63 0 0 0 62 62h500a63 63 0 0 0 63-62v-94a63 63 0 0 0-63-62h-62v31a31 31 0 1 1-63 0v-31z m-62 123h-125a63 63 0 0 0-63 62v94a63 63 0 0 0 63 63h125a63 63 0 0 0 62-63v-94a63 63 0 0 0-62-62z m-110 173a31 31 0 0 1-31-31v-62a31 31 0 0 1 31-32h94a31 31 0 0 1 31 32v62a31 31 0 0 1-31 31z" horiz-adv-x="1000" />

<glyph glyph-name="ic-tag" unicode="&#xe815;" d="M831 265c-62 180-96 280-97 281a97 97 0 0 1-57 53c-2 1 7-2-131 31l140-129a136 136 0 0 0 44-100v-246l68 29a62 62 0 0 1 33 81z m-201-216h-381a62 62 0 0 0-62 62v290a98 98 0 0 0 32 72l178 164a63 63 0 0 0 43 17 61 61 0 0 0 23-4l1-1c11-4 11-4 96-83 26-24 58-53 101-93a98 98 0 0 0 31-72v-290a62 62 0 0 0-62-62z m-114 199a47 47 0 1 1 46-47 47 47 0 0 1-46 47z m6 135a23 23 0 0 1-17-7l-165-166a23 23 0 0 1 16-40 23 23 0 0 1 17 7l165 166a23 23 0 0 1-16 40z m-163 21a47 47 0 1 1 47-47 47 47 0 0 1-47 47z m157-219a16 16 0 1 0 15 16 16 16 0 0 0-15-16z m-157 156a16 16 0 1 0 16 16 16 16 0 0 0-16-16z" horiz-adv-x="1000" />

<glyph glyph-name="ic-hand" unicode="&#xe816;" d="M850 499h-67v-304h67a22 22 0 0 1 22 22v261a22 22 0 0 1-22 21z m-700 0a22 22 0 0 1-21-22v-261a22 22 0 0 1 21-22h67v305z m349-24a41 41 0 0 1-37-25l-63-132a79 79 0 0 1 33-7 82 82 0 0 1 74 48l14 28h40a41 41 0 0 0 29-12l154-162v262z m65-131h-16l-1-3a136 136 0 0 0-110-73 166 166 0 0 0-87 19 22 22 0 0 0-11 30l79 153a90 90 0 0 0 80 48h97a103 103 0 0 1 10 43 22 22 0 0 1-23 22h-174a67 67 0 0 1-60-36l-20-39a23 23 0 0 0-20-12h-39v-304h102l64-62a68 68 0 0 1 68-16l191 58a65 65 0 0 1 29 17z" horiz-adv-x="1000" />

<glyph glyph-name="ic-shop" unicode="&#xe817;" d="M719 37h-438a63 63 0 0 0-62 63v255a94 94 0 0 1 31-5 94 94 0 0 1 63 23 94 94 0 0 1 62-23 94 94 0 0 1 63 23 93 93 0 0 1 62-23 94 94 0 0 1 63 23 94 94 0 0 1 62-23 94 94 0 0 1 63 23 93 93 0 0 1 62-23 94 94 0 0 1 31 5v-255a63 63 0 0 0-62-63z m-519 594h113l0 0v-188a63 63 0 0 0-63-62h0a63 63 0 0 0-62 62v175a13 13 0 0 0 12 13z m238 0h125l0 0v-188a63 63 0 0 0-63-62h0a63 63 0 0 0-62 62v188l0 0z m250 0h112a13 13 0 0 0 13-13v-175a63 63 0 0 0-63-62h0a63 63 0 0 0-62 62v188l0 0z" horiz-adv-x="1000" />

<glyph glyph-name="ic-add" unicode="&#xe81a;" d="M469-25v344h-344v62h344v344h62v-344h344v-62h-344v-344z" horiz-adv-x="1000" />
</font>
</defs>
</svg>
