<svg xmlns="http://www.w3.org/2000/svg" xmlns:xlink="http://www.w3.org/1999/xlink" width="64.758" height="33.342" viewBox="0 0 64.758 33.342">
  <defs>
    <linearGradient id="linear-gradient" x1="1.137" y1="0.212" x2="-0.262" y2="0.796" gradientUnits="objectBoundingBox">
      <stop offset="0" stop-color="#f9be00"/>
      <stop offset="1" stop-color="#c7c300"/>
    </linearGradient>
    <linearGradient id="linear-gradient-2" x1="-0.318" y1="0.226" x2="0.958" y2="0.735" gradientUnits="objectBoundingBox">
      <stop offset="0" stop-color="#c7c300"/>
      <stop offset="1" stop-color="#7fbe26"/>
    </linearGradient>
    <linearGradient id="linear-gradient-3" x1="0.164" y1="0.163" x2="1.011" y2="0.831" gradientUnits="objectBoundingBox">
      <stop offset="0" stop-color="#7dccf3"/>
      <stop offset="1" stop-color="#00b1c3"/>
    </linearGradient>
    <linearGradient id="linear-gradient-4" x1="1.197" y1="0.222" x2="0.255" y2="0.722" gradientUnits="objectBoundingBox">
      <stop offset="0" stop-color="#00b1c3"/>
      <stop offset="1" stop-color="#009d95"/>
    </linearGradient>
    <linearGradient id="linear-gradient-5" x1="0.07" y1="0.5" x2="0.937" y2="0.5" gradientUnits="objectBoundingBox">
      <stop offset="0" stop-color="#0068b6"/>
      <stop offset="1" stop-color="#7dccf3"/>
    </linearGradient>
    <linearGradient id="linear-gradient-6" y1="0.5" x2="1" y2="0.5" gradientUnits="objectBoundingBox">
      <stop offset="0" stop-color="#f9be00"/>
      <stop offset="0.637" stop-color="#ee7f00"/>
      <stop offset="1" stop-color="#ea6000"/>
    </linearGradient>
    <linearGradient id="linear-gradient-7" x1="0.058" y1="0.5" x2="0.926" y2="0.5" gradientUnits="objectBoundingBox">
      <stop offset="0" stop-color="#7fbe26"/>
      <stop offset="1" stop-color="#009d95"/>
    </linearGradient>
  </defs>
  <g id="logo" transform="translate(-8.542 -3.999)">
    <g id="그룹_8" data-name="그룹 8" transform="translate(46.234 12.342)">
      <path id="패스_17" data-name="패스 17" d="M553.949,1240.838c-5.079,0-7.885-3.343-7.885-8.283,0-4.96,3.037-8.325,7.977-8.325a9.87,9.87,0,0,1,4.893,1.18l-.532,3.459a7.909,7.909,0,0,0-4.266-1.367c-2.763,0-4.1,2.039-4.1,5.032,0,3.015,1.388,5.125,4.148,5.125a4.226,4.226,0,0,0,2.157-.511v-2.85h-2.783l-.464-2.946h6.7v7.792A10.544,10.544,0,0,1,553.949,1240.838Z" transform="translate(-546.064 -1224.228)" fill="#0068b7"/>
      <path id="패스_18" data-name="패스 18" d="M690.891,1241.611a13.17,13.17,0,0,1-5.587-1.2l.578-3.388a11.32,11.32,0,0,0,5.081,1.483c1.136,0,1.926-.482,1.926-1.435,0-.906-.468-1.324-2.716-2.182-3.2-1.229-4.59-2.274-4.59-4.917,0-3.081,2.412-4.731,5.467-4.731a10.2,10.2,0,0,1,4.828,1.067l-.605,3.341a8.728,8.728,0,0,0-4.169-1.3c-1.207,0-1.786.507-1.786,1.249,0,.813.439,1.209,2.433,1.972,3.479,1.275,4.872,2.485,4.872,5.032C696.623,1240.079,694.071,1241.611,690.891,1241.611Z" transform="translate(-669.557 -1225.118)" fill="#0068b7"/>
    </g>
    <path id="패스_25" data-name="패스 25" d="M216.279,1218.691l-1.191-1.315a16.6,16.6,0,0,0-2.288,8.328h.821A10.032,10.032,0,0,1,216.279,1218.691Z" transform="translate(-204.256 -1205.812)" fill="url(#linear-gradient)"/>
    <path id="패스_26" data-name="패스 26" d="M216.048,1296.9a7.759,7.759,0,0,1-2.448-5.876v-.018h-.821a20.578,20.578,0,0,0,1.585,8.2Z" transform="translate(-204.235 -1271.115)" fill="url(#linear-gradient-2)"/>
    <path id="패스_27" data-name="패스 27" d="M460.885,1272.264l-1.525,1.574a3.4,3.4,0,0,1,3.367,3.743h.821A6.837,6.837,0,0,0,460.885,1272.264Z" transform="translate(-422.932 -1254.492)" fill="url(#linear-gradient-3)"/>
    <path id="패스_28" data-name="패스 28" d="M466.527,1319.28h-.821c-.041,1.715-.956,3.151-2.986,4.22l2.143,2.949A14.83,14.83,0,0,0,466.527,1319.28Z" transform="translate(-425.912 -1296.19)" fill="url(#linear-gradient-4)"/>
    <path id="패스_29" data-name="패스 29" d="M250.437,1252.108a5.347,5.347,0,0,0-.093.983c0,4.9,3.656,8.035,8.271,8.035,8.773,0,11.378-7.167,15.306-7.167h.062l1.525-1.574a12.689,12.689,0,0,0-8.119-2.536c-6.944,0-10.645,5.8-13.8,5.8-1.372,0-2.423-1.507-2.423-2.969a3.951,3.951,0,0,1,.027-.444Z" transform="translate(-237.554 -1234.611)" fill="url(#linear-gradient-5)"/>
    <path id="패스_30" data-name="패스 30" d="M240.521,1156.776c5.07,0,8.588,3.837,13.113,3.837,5.426,0,8.43-2.644,9.182-7.811l-.821-.135c-.229,1.367-1.118,3.013-2.722,3.013-1.505,0-3.106-1.325-5.434-2.6a16.531,16.531,0,0,0-8.341-2.6,14.583,14.583,0,0,0-12.466,7.565l1.191,1.315a8.561,8.561,0,0,1,6.3-2.576Z" transform="translate(-222.2 -1146.474)" fill="url(#linear-gradient-6)"/>
    <path id="패스_31" data-name="패스 31" d="M240.314,1346.759c-3.926,0-8.892-.852-11.807-3.607l-1.684,2.3c2.423,5.569,7.585,9.249,15.32,9.249,5.112,0,10.767-2.024,13.5-7.082l-2.143-2.95C250.984,1346,246.744,1346.759,240.314,1346.759Z" transform="translate(-216.694 -1317.364)" fill="url(#linear-gradient-7)"/>
  </g>
</svg>
